<svg width="22" height="21" viewBox="0 0 22 21" fill="none" xmlns="http://www.w3.org/2000/svg">
<path d="M11.0099 20.9533C9.49289 20.9533 8.07517 20.6855 6.75677 20.1499C5.43838 19.6143 4.29155 18.8875 3.3163 17.9694C2.34105 17.0513 1.57349 15.9674 1.01363 14.7177C0.453761 13.4681 0.173828 12.1292 0.173828 10.701C0.173828 9.27284 0.453761 7.94243 1.01363 6.70978C1.57349 5.47713 2.34105 4.40175 3.3163 3.48364C4.29155 2.56553 5.43838 1.84719 6.75677 1.32863C8.07517 0.810063 9.49289 0.550781 11.0099 0.550781C12.527 0.550781 13.9447 0.810063 15.2631 1.32863C16.5815 1.84719 17.7283 2.56553 18.7036 3.48364C19.6788 4.40175 20.4464 5.47713 21.0063 6.70978C21.5661 7.94243 21.8461 9.27284 21.8461 10.701C21.8461 12.1292 21.5661 13.4681 21.0063 14.7177C20.4464 15.9674 19.6788 17.0513 18.7036 17.9694C17.7283 18.8875 16.5815 19.6143 15.2631 20.1499C13.9447 20.6855 12.527 20.9533 11.0099 20.9533ZM11.0099 19.4741C11.6421 18.862 12.1703 18.1607 12.5947 17.3701C13.0191 16.5795 13.3668 15.6401 13.6377 14.552H8.40928C8.66212 15.5721 9.00075 16.4902 9.42517 17.3063C9.84958 18.1224 10.3778 18.845 11.0099 19.4741ZM8.70727 19.168C8.25577 18.522 7.86747 17.8249 7.54239 17.0768C7.21731 16.3287 6.9464 15.4871 6.72968 14.552H2.66614C3.35242 15.7591 4.14707 16.707 5.05008 17.3956C5.95309 18.0842 7.17216 18.675 8.70727 19.168ZM13.3397 19.1425C14.64 18.7515 15.8094 18.1649 16.8479 17.3828C17.8864 16.6007 18.7217 15.6571 19.3538 14.552H15.3173C15.0825 15.4701 14.8071 16.3032 14.4911 17.0513C14.175 17.7994 13.7912 18.4965 13.3397 19.1425ZM2.12433 13.0218H6.43169C6.37751 12.5627 6.3459 12.1504 6.33687 11.7849C6.32784 11.4193 6.32333 11.0581 6.32333 10.701C6.32333 10.276 6.33236 9.89767 6.35042 9.56612C6.36848 9.23458 6.4046 8.86479 6.45878 8.45674H2.12433C1.99791 8.86479 1.91212 9.23033 1.86697 9.55337C1.82182 9.87641 1.79925 10.259 1.79925 10.701C1.79925 11.1431 1.82182 11.5384 1.86697 11.8869C1.91212 12.2354 1.99791 12.6137 2.12433 13.0218ZM8.11129 13.0218H13.9357C14.0079 12.4947 14.0531 12.0654 14.0712 11.7339C14.0892 11.4023 14.0982 11.0581 14.0982 10.701C14.0982 10.361 14.0892 10.0337 14.0712 9.71914C14.0531 9.4046 14.0079 8.9838 13.9357 8.45674H8.11129C8.03905 8.9838 7.9939 9.4046 7.97583 9.71914C7.95777 10.0337 7.94874 10.361 7.94874 10.701C7.94874 11.0581 7.95777 11.4023 7.97583 11.7339C7.9939 12.0654 8.03905 12.4947 8.11129 13.0218ZM15.5611 13.0218H19.8956C20.022 12.6137 20.1078 12.2354 20.1529 11.8869C20.1981 11.5384 20.2207 11.1431 20.2207 10.701C20.2207 10.259 20.1981 9.87641 20.1529 9.55337C20.1078 9.23033 20.022 8.86479 19.8956 8.45674H15.5882C15.6424 9.05181 15.6785 9.50662 15.6966 9.82116C15.7146 10.1357 15.7237 10.429 15.7237 10.701C15.7237 11.0751 15.7101 11.4279 15.683 11.7594C15.6559 12.0909 15.6153 12.5117 15.5611 13.0218ZM15.2902 6.92655H19.3538C18.7578 5.75341 17.9406 4.77579 16.9021 3.9937C15.8636 3.2116 14.6671 2.65904 13.3126 2.336C13.7641 2.96507 14.1479 3.64516 14.464 4.37625C14.78 5.10733 15.0554 5.95744 15.2902 6.92655ZM8.40928 6.92655H13.6648C13.4661 6.02545 13.132 5.15409 12.6625 4.31249C12.1929 3.47089 11.6421 2.72705 11.0099 2.08097C10.432 2.54002 9.9444 3.1436 9.54707 3.89169C9.14975 4.63978 8.77048 5.6514 8.40928 6.92655ZM2.66614 6.92655H6.75677C6.95543 6.00844 7.20828 5.18809 7.5153 4.46551C7.82232 3.74292 8.21062 3.04158 8.68018 2.3615C7.32567 2.68454 6.14272 3.22861 5.13135 3.9937C4.11998 4.75879 3.29824 5.73641 2.66614 6.92655Z" fill="#274F8D"/>
</svg>
