<svg width="22" height="20" viewBox="0 0 22 20" fill="none" xmlns="http://www.w3.org/2000/svg">
<path d="M5.61898 16.3825C5.36614 16.3825 5.11781 16.2635 4.874 16.0255C4.63018 15.7875 4.50828 15.5494 4.50828 15.3114V12.8121H18.0534V4.14104H20.7625C21.0153 4.14104 21.2591 4.26006 21.4939 4.49809C21.7287 4.73611 21.8461 4.98264 21.8461 5.23768V18.6013C21.8461 18.9413 21.679 19.1751 21.3449 19.3026C21.0108 19.4301 20.7173 19.3749 20.4645 19.1369L17.5387 16.3825H5.61898ZM4.50828 11.2819L1.55543 14.0617C1.30259 14.2998 1.00911 14.355 0.674999 14.2275C0.340885 14.1 0.173828 13.8662 0.173828 13.5262V1.13168C0.173828 0.893648 0.291219 0.655619 0.526002 0.41759C0.760785 0.179561 1.0046 0.0605469 1.25744 0.0605469H15.3173C15.5882 0.0605469 15.8411 0.175311 16.0758 0.404839C16.3106 0.634367 16.428 0.876646 16.428 1.13168V10.2108C16.428 10.4488 16.3106 10.6868 16.0758 10.9249C15.8411 11.1629 15.5882 11.2819 15.3173 11.2819H4.50828Z" fill="#274F8D"/>
</svg>
