<svg width="20" height="21" viewBox="0 0 20 21" fill="none" xmlns="http://www.w3.org/2000/svg">
<path d="M5.83646 11.4343L8.00368 9.394C8.16623 9.24099 8.2475 9.05821 8.2475 8.84569C8.2475 8.63316 8.16623 8.45039 8.00368 8.29737C7.84114 8.14435 7.647 8.06784 7.42124 8.06784C7.19549 8.06784 7.00134 8.14435 6.8388 8.29737L4.07559 10.8987C3.91305 11.0517 3.83178 11.2302 3.83178 11.4343C3.83178 11.6383 3.91305 11.8168 4.07559 11.9698L6.8388 14.5711C7.00134 14.7242 7.19549 14.8007 7.42124 14.8007C7.647 14.8007 7.84114 14.7242 8.00368 14.5711C8.16623 14.4181 8.2475 14.2396 8.2475 14.0356C8.2475 13.8315 8.16623 13.653 8.00368 13.5L5.83646 11.4343ZM14.2074 11.4343L12.013 13.5C11.8505 13.653 11.7692 13.8315 11.7692 14.0356C11.7692 14.2396 11.8505 14.4181 12.013 14.5711C12.1756 14.7242 12.3697 14.8007 12.5955 14.8007C12.8212 14.8007 13.0154 14.7242 13.1779 14.5711L15.9682 11.9698C16.1308 11.8168 16.212 11.6383 16.212 11.4343C16.212 11.2302 16.1308 11.0517 15.9682 10.8987L13.205 8.29737C13.0425 8.14435 12.8528 8.06784 12.6361 8.06784C12.4194 8.06784 12.2298 8.14435 12.0672 8.29737C11.9047 8.45039 11.8234 8.63316 11.8234 8.84569C11.8234 9.05821 11.9047 9.24099 12.0672 9.394L14.2074 11.4343ZM1.88128 20.6154C1.42977 20.6154 1.04599 20.4666 0.72994 20.1691C0.413886 19.8715 0.255859 19.5102 0.255859 19.0852V3.78332C0.255859 3.35827 0.413886 2.99698 0.72994 2.69944C1.04599 2.40191 1.42977 2.25314 1.88128 2.25314H7.43479C7.52509 1.65807 7.81405 1.16926 8.30168 0.78671C8.7893 0.404164 9.3582 0.212891 10.0084 0.212891C10.6585 0.212891 11.2274 0.404164 11.7151 0.78671C12.2027 1.16926 12.4916 1.65807 12.5819 2.25314H18.1355C18.587 2.25314 18.9707 2.40191 19.2868 2.69944C19.6028 2.99698 19.7609 3.35827 19.7609 3.78332V19.0852C19.7609 19.5102 19.6028 19.8715 19.2868 20.1691C18.9707 20.4666 18.587 20.6154 18.1355 20.6154H1.88128ZM10.0084 3.34977C10.2612 3.34977 10.4824 3.26051 10.6721 3.08199C10.8617 2.90347 10.9565 2.69519 10.9565 2.45716C10.9565 2.21913 10.8617 2.01086 10.6721 1.83234C10.4824 1.65382 10.2612 1.56455 10.0084 1.56455C9.75552 1.56455 9.53429 1.65382 9.34466 1.83234C9.15502 2.01086 9.06021 2.21913 9.06021 2.45716C9.06021 2.69519 9.15502 2.90347 9.34466 3.08199C9.53429 3.26051 9.75552 3.34977 10.0084 3.34977Z" fill="#274F8D"/>
</svg>
