<svg width="22" height="21" viewBox="0 0 22 21" fill="none" xmlns="http://www.w3.org/2000/svg">
<path d="M6.4046 10.9015H15.6153C15.8456 10.9015 16.0386 10.8278 16.1944 10.6803C16.3501 10.5328 16.428 10.35 16.428 10.132C16.428 9.91393 16.3501 9.73265 16.1944 9.58813C16.0386 9.44361 15.8456 9.37135 15.6153 9.37135H6.4046C6.17433 9.37135 5.98131 9.4451 5.82554 9.59259C5.66977 9.7401 5.59189 9.92288 5.59189 10.1409C5.59189 10.359 5.66977 10.5402 5.82554 10.6848C5.98131 10.8293 6.17433 10.9015 6.4046 10.9015ZM11.0172 20.4142C9.52296 20.4142 8.11878 20.1464 6.80461 19.6108C5.49044 19.0753 4.34122 18.3442 3.35694 17.4176C2.37266 16.491 1.59607 15.4084 1.02717 14.17C0.458276 12.9316 0.173828 11.6083 0.173828 10.2002C0.173828 8.79211 0.458276 7.46885 1.02717 6.23042C1.59607 4.99197 2.37266 3.91369 3.35694 2.99558C4.34122 2.07747 5.49112 1.35063 6.80664 0.815066C8.12215 0.279501 9.52777 0.0117188 11.0235 0.0117188C12.5192 0.0117188 13.9248 0.279501 15.2403 0.815066C16.5559 1.35063 17.7013 2.07747 18.6765 2.99558C19.6518 3.91369 20.4238 4.99332 20.9927 6.23447C21.5616 7.47562 21.8461 8.79952 21.8461 10.2062C21.8461 11.6128 21.5616 12.9347 20.9927 14.1719C20.4238 15.4091 19.6518 16.4894 18.6765 17.4129C17.7013 18.3364 16.5544 19.0675 15.236 19.6062C13.9176 20.1448 12.5113 20.4142 11.0172 20.4142Z" fill="#FF2121"/>
</svg>
