<svg width="20" height="21" viewBox="0 0 20 21" fill="none" xmlns="http://www.w3.org/2000/svg">
<path d="M9.275 18.05H10.65V16.75C11.6667 16.6333 12.4583 16.3208 13.025 15.8125C13.5917 15.3042 13.875 14.625 13.875 13.775C13.875 12.925 13.6333 12.2333 13.15 11.7C12.6667 11.1667 11.85 10.6583 10.7 10.175C9.73333 9.775 9.03333 9.41667 8.6 9.1C8.16667 8.78333 7.95 8.35833 7.95 7.825C7.95 7.30833 8.1375 6.9 8.5125 6.6C8.8875 6.3 9.4 6.15 10.05 6.15C10.55 6.15 10.9833 6.26667 11.35 6.5C11.7167 6.73333 12.025 7.08333 12.275 7.55L13.475 6.975C13.1917 6.39167 12.8167 5.93333 12.35 5.6C11.8833 5.26667 11.3333 5.06667 10.7 5V3.725H9.325V5C8.475 5.11667 7.80417 5.42917 7.3125 5.9375C6.82083 6.44583 6.575 7.075 6.575 7.825C6.575 8.64167 6.825 9.29167 7.325 9.775C7.825 10.2583 8.575 10.7083 9.575 11.125C10.6917 11.5917 11.4583 12.0125 11.875 12.3875C12.2917 12.7625 12.5 13.225 12.5 13.775C12.5 14.3083 12.2792 14.7375 11.8375 15.0625C11.3958 15.3875 10.8417 15.55 10.175 15.55C9.525 15.55 8.94583 15.3667 8.4375 15C7.92917 14.6333 7.575 14.1333 7.375 13.5L6.1 13.925C6.45 14.6917 6.87917 15.2958 7.3875 15.7375C7.89583 16.1792 8.525 16.5 9.275 16.7V18.05ZM10 20.875C8.63333 20.875 7.34167 20.6125 6.125 20.0875C4.90833 19.5625 3.84583 18.8458 2.9375 17.9375C2.02917 17.0292 1.3125 15.9667 0.7875 14.75C0.2625 13.5333 0 12.2417 0 10.875C0 9.49167 0.2625 8.19167 0.7875 6.975C1.3125 5.75833 2.02917 4.7 2.9375 3.8C3.84583 2.9 4.90833 2.1875 6.125 1.6625C7.34167 1.1375 8.63333 0.875 10 0.875C11.3833 0.875 12.6833 1.1375 13.9 1.6625C15.1167 2.1875 16.175 2.9 17.075 3.8C17.975 4.7 18.6875 5.75833 19.2125 6.975C19.7375 8.19167 20 9.49167 20 10.875C20 12.2417 19.7375 13.5333 19.2125 14.75C18.6875 15.9667 17.975 17.0292 17.075 17.9375C16.175 18.8458 15.1167 19.5625 13.9 20.0875C12.6833 20.6125 11.3833 20.875 10 20.875Z" fill="#274F8D"/>
</svg>
