<svg width="22" height="22" viewBox="0 0 22 22" fill="none" xmlns="http://www.w3.org/2000/svg">
<path d="M9.41162 13.1646L6.75677 10.6653C6.59423 10.5123 6.39557 10.4358 6.16078 10.4358C5.926 10.4358 5.71831 10.5208 5.53771 10.6908C5.37517 10.8438 5.2939 11.0308 5.2939 11.2519C5.2939 11.4729 5.37517 11.6599 5.53771 11.8129L8.84272 14.9498C9.00527 15.1028 9.1949 15.1793 9.41162 15.1793C9.62834 15.1793 9.81798 15.1028 9.98052 14.9498L16.4551 8.85457C16.6357 8.68455 16.726 8.48903 16.726 8.268C16.726 8.04698 16.6357 7.85145 16.4551 7.68143C16.2745 7.52841 16.0623 7.45615 15.8185 7.46466C15.5747 7.47316 15.3715 7.55392 15.2089 7.70693L9.41162 13.1646ZM11.0099 21.0451C9.52901 21.0451 8.12935 20.7773 6.81095 20.2417C5.49256 19.7061 4.34122 18.9751 3.35694 18.0484C2.37266 17.1218 1.59607 16.0379 1.02717 14.7968C0.458276 13.5556 0.173828 12.238 0.173828 10.8438C0.173828 9.43264 0.458276 8.10648 1.02717 6.86533C1.59607 5.62418 2.37266 4.54455 3.35694 3.62644C4.34122 2.70833 5.49256 1.98149 6.81095 1.44593C8.12935 0.910361 9.52901 0.642578 11.0099 0.642578C12.5089 0.642578 13.9176 0.910361 15.236 1.44593C16.5544 1.98149 17.7013 2.70833 18.6765 3.62644C19.6518 4.54455 20.4238 5.62418 20.9927 6.86533C21.5616 8.10648 21.8461 9.43264 21.8461 10.8438C21.8461 12.238 21.5616 13.5556 20.9927 14.7968C20.4238 16.0379 19.6518 17.1218 18.6765 18.0484C17.7013 18.9751 16.5544 19.7061 15.236 20.2417C13.9176 20.7773 12.5089 21.0451 11.0099 21.0451Z" fill="#274F8D"/>
</svg>
