<svg width="67" height="67" viewBox="0 0 67 67" fill="none" xmlns="http://www.w3.org/2000/svg">
<rect width="67" height="67" rx="7" fill="#FFD231"/>
<g clip-path="url(#clip0_5936_1251)">
<path d="M43.8404 29.466C39.6077 29.9145 39.4245 34.5215 39.4245 34.5215V46.8953L32.0172 50.5034L31.9358 34.6031C31.8544 28.6303 25.1592 29.1807 25.1592 29.1807L14.5977 29.0176L15.6762 41.3913C15.6762 41.3913 17.4873 61.1852 31.4677 59.9213C45.4481 58.6574 50.4948 38.9655 51.2274 35.7854C51.899 32.8704 53.181 29.4049 53.181 29.4049C53.181 29.4049 48.0732 29.0176 43.8404 29.466Z" fill="#1F1E29"/>
<path d="M58.4532 6.42921C57.863 6.81653 41.6645 17.2944 16.0033 16.4179C16.0033 16.4179 15.2504 16.2752 14.5178 16.316C13.1951 16.1733 10.7124 15.9083 9.14544 15.7248L7.84305 15.5617C7.8227 15.5617 7.782 15.5617 7.76165 15.5617C7.5378 15.5821 7.375 15.7656 7.375 15.9898L7.5785 28.3431C7.5785 28.3431 7.68025 28.9547 8.41284 28.8732C9.24719 28.7712 9.30824 28.3024 9.30824 28.3024L9.18614 18.0079L13.1951 18.436C13.48 20.1891 14.0294 22.6761 14.0294 22.6761L52.5721 22.2888C52.5721 22.2888 55.4211 22.1461 56.1537 19.3329C56.6828 17.3352 59.9794 6.28651 59.9794 6.28651C59.9794 6.28651 59.7556 5.57304 58.4532 6.42921Z" fill="#1F1E29"/>
<path d="M13.2148 33.1753L10.1623 32.6656C10.0809 32.6452 9.99954 32.6045 9.95884 32.5229L8.45295 29.7098C8.3512 29.5059 8.0663 29.5263 7.96455 29.7098L6.62146 32.4618C6.58076 32.5433 6.49936 32.6045 6.41796 32.6045L3.20268 33.1549C2.97884 33.1956 2.89744 33.4606 3.06024 33.6237L5.33942 35.9069C5.40047 35.968 5.42082 36.0495 5.42082 36.1515L4.91207 39.1685C4.87137 39.3927 5.11557 39.5762 5.31907 39.4539L8.04595 37.823C8.12735 37.7619 8.2291 37.7619 8.33085 37.823L11.1188 39.4539C11.3223 39.5762 11.5665 39.3927 11.5258 39.1685L10.9356 36.2534C10.9153 36.1719 10.9356 36.0699 11.017 36.0088L13.3776 33.6441C13.5201 33.481 13.4387 33.216 13.2148 33.1753Z" fill="#1F1E29"/>
</g>
<defs>
<clipPath id="clip0_5936_1251">
<rect width="57" height="54" fill="white" transform="translate(3 6)"/>
</clipPath>
</defs>
</svg>
