<svg width="348" height="67" viewBox="0 0 348 67" fill="none" xmlns="http://www.w3.org/2000/svg">
<path d="M193.798 52.5195H185.691V24.9857H176.869L174 18.2104H202.621V24.9857H193.798V52.5195Z" fill="#FFD231"/>
<path d="M215.062 25.6104C218.463 25.6104 221.102 26.4113 222.978 28.013C224.854 29.5827 225.791 31.9212 225.791 35.0286V52.5195H220.212L218.638 48.9636H218.447C217.716 49.8926 216.953 50.6615 216.158 51.2701C215.395 51.8788 214.505 52.3113 213.488 52.5675C212.502 52.8558 211.278 53 209.816 53C208.29 53 206.907 52.6957 205.667 52.087C204.459 51.4784 203.505 50.5494 202.806 49.3C202.106 48.0507 201.757 46.4649 201.757 44.5429C201.757 41.7238 202.726 39.6416 204.666 38.2961C206.637 36.9507 209.514 36.1978 213.297 36.0377L217.78 35.8935V35.1247C217.78 33.8433 217.446 32.9143 216.778 32.3377C216.143 31.761 215.252 31.4727 214.108 31.4727C212.963 31.4727 211.771 31.6649 210.531 32.0494C209.291 32.4017 208.036 32.8502 206.764 33.3948L204.332 28.013C205.763 27.2442 207.384 26.6515 209.196 26.2351C211.008 25.8186 212.963 25.6104 215.062 25.6104ZM215.348 40.6026C213.345 40.6667 211.946 41.0351 211.151 41.7078C210.356 42.3485 209.959 43.2294 209.959 44.3507C209.959 45.3437 210.245 46.0645 210.817 46.513C211.39 46.9615 212.121 47.1857 213.011 47.1857C214.346 47.1857 215.475 46.7853 216.397 45.9844C217.319 45.1515 217.78 44.0303 217.78 42.6208V40.5065L215.348 40.6026Z" fill="#FFD231"/>
<path d="M240.636 52.5195H232.577V16H240.636V52.5195Z" fill="#FFD231"/>
<path d="M258.828 25.6584C261.307 25.6584 263.437 26.1229 265.218 27.0519C267.03 27.9489 268.413 29.2944 269.367 31.0883C270.352 32.8502 270.845 35.0446 270.845 37.6714V41.4195H254.297C254.361 43.1494 254.917 44.5268 255.966 45.5519C257.015 46.5771 258.51 47.0896 260.449 47.0896C262.134 47.0896 263.66 46.9294 265.027 46.6091C266.394 46.2887 267.809 45.7762 269.271 45.0714V51.0779C268 51.7507 266.633 52.2312 265.17 52.5195C263.708 52.8398 261.911 53 259.781 53C257.143 53 254.79 52.5195 252.724 51.5584C250.689 50.5974 249.083 49.1238 247.907 47.1377C246.763 45.1195 246.19 42.5727 246.19 39.4974C246.19 36.358 246.715 33.7792 247.764 31.761C248.813 29.7108 250.291 28.1892 252.199 27.1961C254.107 26.171 256.316 25.6584 258.828 25.6584ZM258.971 31.2805C257.731 31.2805 256.698 31.681 255.871 32.4818C255.076 33.2507 254.599 34.484 254.44 36.1818H263.453C263.453 35.2528 263.279 34.4199 262.929 33.6831C262.611 32.9463 262.118 32.3697 261.45 31.9532C260.783 31.5048 259.956 31.2805 258.971 31.2805Z" fill="#FFD231"/>
<path d="M291.853 25.6584C294.619 25.6584 296.845 26.4273 298.53 27.9649C300.246 29.4706 301.105 31.9212 301.105 35.3169V52.5195H293.093V37.5753C293.093 35.7494 292.791 34.3719 292.187 33.4429C291.583 32.5139 290.629 32.0494 289.326 32.0494C287.387 32.0494 286.067 32.7861 285.368 34.2597C284.668 35.7013 284.319 37.7836 284.319 40.5065V52.5195H276.259V26.139H282.364L283.46 29.5507H283.842C284.414 28.6857 285.098 27.9649 285.892 27.3883C286.687 26.8117 287.593 26.3792 288.611 26.0909C289.628 25.8026 290.709 25.6584 291.853 25.6584Z" fill="#FFD231"/>
<path d="M319.755 46.561C320.582 46.561 321.345 46.481 322.044 46.3208C322.743 46.1606 323.459 45.9524 324.19 45.6961V51.6545C323.332 52.039 322.346 52.3593 321.233 52.6156C320.121 52.8719 318.801 53 317.275 53C315.654 53 314.207 52.7437 312.936 52.2312C311.696 51.6866 310.71 50.7736 309.979 49.4922C309.28 48.1788 308.93 46.3688 308.93 44.0623V32.1935H305.592V28.8299L309.597 26.2351L311.791 20.661H316.941V26.139H323.904V32.1935H316.941V43.774C316.941 44.703 317.196 45.4078 317.704 45.8883C318.213 46.3368 318.897 46.561 319.755 46.561Z" fill="#FFD231"/>
<path d="M348 44.5429C348 46.2727 347.603 47.7784 346.808 49.0597C346.045 50.3091 344.837 51.2861 343.184 51.9909C341.53 52.6636 339.432 53 336.889 53C335.045 53 333.423 52.8879 332.025 52.6636C330.657 52.4394 329.275 52.039 327.876 51.4623V44.9273C329.402 45.6 330.991 46.1286 332.644 46.513C334.329 46.8974 335.728 47.0896 336.841 47.0896C338.049 47.0896 338.923 46.9294 339.464 46.6091C340.004 46.2887 340.275 45.8403 340.275 45.2636C340.275 44.8472 340.132 44.4788 339.845 44.1584C339.591 43.8381 339.051 43.4697 338.224 43.0532C337.429 42.6368 336.237 42.1082 334.647 41.4675C333.09 40.7948 331.802 40.1061 330.785 39.4013C329.799 38.6965 329.052 37.8476 328.543 36.8545C328.066 35.8615 327.828 34.6442 327.828 33.2026C327.828 30.7039 328.782 28.8299 330.689 27.5805C332.629 26.2991 335.188 25.6584 338.367 25.6584C340.052 25.6584 341.642 25.8346 343.136 26.187C344.63 26.5394 346.172 27.084 347.762 27.8208L345.473 33.2987C344.614 32.9143 343.756 32.5779 342.897 32.2896C342.071 32.0013 341.276 31.7771 340.513 31.6169C339.75 31.4567 339.035 31.3766 338.367 31.3766C337.477 31.3766 336.793 31.5048 336.316 31.761C335.84 31.9853 335.601 32.3377 335.601 32.8182C335.601 33.1706 335.728 33.5069 335.983 33.8273C336.269 34.1156 336.793 34.4359 337.556 34.7883C338.351 35.1407 339.496 35.6372 340.99 36.2779C342.484 36.8866 343.756 37.5273 344.805 38.2C345.854 38.8727 346.649 39.7056 347.189 40.6987C347.73 41.6918 348 42.9732 348 44.5429Z" fill="#FFD231"/>
<path d="M98.2008 18.4768C101.36 18.4768 103.961 18.7788 106.003 19.3828C108.045 19.9868 109.561 20.9246 110.55 22.1962C111.54 23.436 112.034 25.0572 112.034 27.0599C112.034 28.4269 111.795 29.6349 111.316 30.6839C110.838 31.7012 110.199 32.5436 109.402 33.2112C108.604 33.847 107.71 34.2602 106.721 34.451V34.6894C107.742 34.9119 108.716 35.3093 109.641 35.8815C110.566 36.4219 111.316 37.2325 111.891 38.3134C112.497 39.3942 112.8 40.8247 112.8 42.6049C112.8 44.6712 112.274 46.4514 111.221 47.9455C110.199 49.4396 108.732 50.584 106.817 51.3787C104.902 52.1417 102.636 52.5232 100.02 52.5232H87V18.4768H98.2008ZM98.7274 31.7807C100.546 31.7807 101.823 31.4628 102.557 30.827C103.291 30.1594 103.658 29.2693 103.658 28.1567C103.658 27.0441 103.227 26.2175 102.365 25.6771C101.536 25.1367 100.211 24.8665 98.3923 24.8665H95.1373V31.7807H98.7274ZM95.1373 37.9796V46.0381H99.206C101.121 46.0381 102.445 45.6567 103.179 44.8937C103.945 44.1308 104.328 43.1294 104.328 41.8896C104.328 41.1267 104.168 40.4591 103.849 39.8869C103.53 39.2829 102.972 38.822 102.174 38.5041C101.408 38.1544 100.355 37.9796 99.0146 37.9796H95.1373Z" fill="white"/>
<path d="M140.364 42.6526C140.364 44.5917 139.886 46.356 138.928 47.9455C137.971 49.5032 136.535 50.743 134.62 51.6649C132.706 52.555 130.296 53 127.392 53C126.052 53 124.808 52.9205 123.659 52.7616C122.51 52.6026 121.409 52.3801 120.356 52.094C119.335 51.7761 118.33 51.3787 117.34 50.9019V43.5109C119.064 44.3056 120.819 44.9732 122.606 45.5136C124.425 46.054 126.164 46.3242 127.823 46.3242C128.876 46.3242 129.722 46.1971 130.36 45.9428C131.03 45.6567 131.509 45.2911 131.796 44.846C132.115 44.3692 132.275 43.8288 132.275 43.2248C132.275 42.4936 132.02 41.8738 131.509 41.3651C131.03 40.8247 130.312 40.3161 129.355 39.8392C128.398 39.3306 127.233 38.7584 125.861 38.1226C124.84 37.6776 123.834 37.1689 122.845 36.5967C121.888 35.9927 121.01 35.3093 120.212 34.5463C119.447 33.7516 118.824 32.8138 118.346 31.733C117.899 30.6203 117.675 29.317 117.675 27.8229C117.675 25.693 118.17 23.9128 119.159 22.4823C120.181 21.02 121.601 19.9074 123.419 19.1444C125.238 18.3815 127.376 18 129.834 18C131.844 18 133.695 18.2225 135.386 18.6676C137.077 19.1126 138.721 19.6848 140.316 20.3842L137.732 26.7262C136.2 26.0586 134.764 25.55 133.424 25.2003C132.115 24.8188 130.839 24.6281 129.594 24.6281C128.733 24.6281 128.015 24.7552 127.44 25.0095C126.866 25.2321 126.435 25.5658 126.148 26.0109C125.861 26.4242 125.717 26.9169 125.717 27.4891C125.717 28.1567 125.94 28.7448 126.387 29.2534C126.834 29.7302 127.536 30.223 128.493 30.7316C129.451 31.2402 130.711 31.8601 132.275 32.5913C133.966 33.3542 135.418 34.1807 136.631 35.0708C137.843 35.9609 138.769 37.01 139.407 38.218C140.045 39.3942 140.364 40.8724 140.364 42.6526Z" fill="white"/>
<path d="M167.097 52.5232L164.991 45.2275H153.168L151.061 52.5232H142.158L153.79 18.3338H164.225L176 52.5232H167.097ZM161.161 31.6376C161.002 31.0654 160.778 30.3025 160.491 29.3488C160.236 28.3633 159.965 27.3619 159.677 26.3447C159.422 25.3274 159.215 24.4691 159.055 23.7698C158.928 24.4691 158.72 25.3433 158.433 26.3924C158.178 27.4096 157.922 28.411 157.667 29.3965C157.412 30.3501 157.204 31.0972 157.045 31.6376L155.034 38.4564H163.172L161.161 31.6376Z" fill="white"/>
<rect width="67" height="67" rx="7" fill="#FFD231"/>
<g clip-path="url(#clip0_1_138)">
<path d="M43.8419 29.4657C39.6091 29.9142 39.426 34.5212 39.426 34.5212V46.895L32.0186 50.5031L31.9372 34.6028C31.8558 28.63 25.1607 29.1804 25.1607 29.1804L14.5991 29.0173L15.6777 41.391C15.6777 41.391 17.4888 61.1849 31.4692 59.921C45.4495 58.6571 50.4963 38.9652 51.2289 35.7851C51.9004 32.87 53.1825 29.4046 53.1825 29.4046C53.1825 29.4046 48.0747 29.0173 43.8419 29.4657Z" fill="#1F1E29"/>
<path d="M58.4534 6.42955C57.8632 6.81686 41.6647 17.2948 16.0035 16.4182C16.0035 16.4182 15.2506 16.2755 14.518 16.3163C13.1952 16.1736 10.7126 15.9086 9.14562 15.7251L7.84323 15.562C7.82288 15.562 7.78218 15.562 7.76183 15.562C7.53798 15.5824 7.37518 15.7659 7.37518 15.9901L7.57868 28.3435C7.57868 28.3435 7.68043 28.955 8.41303 28.8735C9.24737 28.7716 9.30842 28.3027 9.30842 28.3027L9.18632 18.0083L13.1952 18.4363C13.4801 20.1895 14.0296 22.6764 14.0296 22.6764L52.5723 22.2891C52.5723 22.2891 55.4212 22.1464 56.1538 19.3333C56.6829 17.3355 59.9796 6.28685 59.9796 6.28685C59.9796 6.28685 59.7558 5.57337 58.4534 6.42955Z" fill="#1F1E29"/>
<path d="M13.2156 33.1746L10.1631 32.665C10.0817 32.6446 10.0003 32.6039 9.95958 32.5223L8.45368 29.7092C8.35193 29.5053 8.06704 29.5257 7.96529 29.7092L6.6222 32.4612C6.5815 32.5427 6.5001 32.6039 6.4187 32.6039L3.20342 33.1543C2.97957 33.195 2.89817 33.46 3.06097 33.6231L5.34015 35.9062C5.4012 35.9674 5.42155 36.0489 5.42155 36.1509L4.91281 39.1678C4.87211 39.3921 5.1163 39.5756 5.3198 39.4532L8.04669 37.8224C8.12809 37.7613 8.22984 37.7613 8.33159 37.8224L11.1195 39.4532C11.323 39.5756 11.5672 39.3921 11.5265 39.1678L10.9364 36.2528C10.916 36.1712 10.9364 36.0693 11.0178 36.0082L13.3784 33.6435C13.5208 33.4804 13.4394 33.2154 13.2156 33.1746Z" fill="#1F1E29"/>
</g>
<defs>
<clipPath id="clip0_1_138">
<rect width="57" height="54" fill="white" transform="translate(3 6)"/>
</clipPath>
</defs>
</svg>
